#!OML:ASF X:\für Bonn\!DataBase\2005_08_11_Bastian_Final\c3d\Bastian.ASF
:FULLY-SPECIFIED
:DEGREES
96
root -2.61106 17.3989 2.53844 154.785 -3.65898 -168.386
lowerback 22.7905 -2.6697 7.40445
upperback 10.6205 -5.12444 6.84181
thorax -0.736448 -3.92052 4.38495
lowerneck -3.457 -4.43257 -6.15896
upperneck -6.94884 -5.24757 5.86574
head -1.26574 -2.42242 2.93548
rclavicle 5.98342e-014 -3.73715e-014
rhumerus -34.6198 31.6208 -90.3556
rradius 39.2162
rwrist -31.4883
rhand -38.1391 6.04668
rfingers 7.12502
rthumb -11.1734 -23.6358
lclavicle 5.98342e-014 -3.73715e-014
lhumerus 30.4301 -35.4432 71.6774
lradius 76.3564
lwrist -4.65508
lhand -55.7906 -0.968363
lfingers 7.12502
lthumb -28.1361 26.9407
rfemur -34.0075 -3.69799 29.8836
rtibia 94.0472
rfoot 7.07345 -10.9141
rtoes -11.1082
lfemur 17.015 -4.00056 -12.2251
ltibia 24.6052
lfoot -11.4014 2.34934
ltoes 3.10685
97
root -2.60219 17.4115 2.50846 155.405 -3.72121 -168.485
lowerback 21.847 -2.66984 7.34764
upperback 10.2765 -5.01173 6.76125
thorax -0.676373 -3.77449 4.23333
lowerneck -3.02032 -4.43844 -6.09324
upperneck -6.79875 -5.31184 5.84114
head -1.29183 -2.47386 2.92397
rclavicle -2.78299e-014 1.07344e-013
rhumerus -34.8907 31.3068 -90.4924
rradius 39.3757
rwrist -31.6863
rhand -38.2622 6.14891
rfingers 7.12502
rthumb -11.2921 -23.5271
lclavicle -2.78299e-014 1.07344e-013
lhumerus 29.1254 -36.626 71.8621
lradius 74.9223
lwrist -5.04496
lhand -55.5585 -1.06487
lfingers 7.12502
lthumb -27.9142 26.8804
rfemur -31.8362 -2.72069 29.8352
rtibia 91.4562
rfoot 6.97618 -11.5151
rtoes -10.7262
lfemur 16.4193 -3.95399 -12.2544
ltibia 24.6961
lfoot -11.5129 2.28056
ltoes 3.28242
98
root -2.59206 17.4161 2.47801 156.023 -3.80221 -168.572
lowerback 20.9073 -2.67098 7.33547
upperback 9.93007 -4.89481 6.65859
thorax -0.617541 -3.62611 4.03546
lowerneck -2.70239 -4.46777 -6.002
upperneck -6.51994 -5.40528 5.82763
head -1.25435 -2.54017 2.905
rclavicle 5.14852e-014 7.79236e-014
rhumerus -35.1702 30.9289 -90.6598
rradius 39.5268
rwrist -31.8327
rhand -38.3533 6.1857
rfingers 7.12502
rthumb -11.38 -23.4855
lclavicle 5.14852e-014 7.79236e-014
lhumerus 27.7958 -37.9554 72.0089
lradius 73.5184
lwrist -5.30395
lhand -55.3399 -1.21218
lfingers 7.12502
lthumb -27.7052 26.7669
rfemur -29.7311 -1.88696 29.8304
rtibia 88.8688
rfoot 6.88642 -12.058
rtoes -10.1695
lfemur 15.7309 -3.87562 -12.252
ltibia 24.9649
lfoot -11.7049 2.14324
ltoes 3.40245
99
root -2.58047 17.4124 2.44794 156.626 -3.89957 -168.686
lowerback 19.9693 -2.64561 7.32978
upperback 9.60048 -4.75143 6.53865
thorax -0.535778 -3.46735 3.81216
lowerneck -2.36727 -4.52587 -5.90373
upperneck -6.28379 -5.53284 5.81914
head -1.23172 -2.62209 2.88774
rclavicle -5.57591e-014 9.54166e-015
rhumerus -35.4104 30.4343 -90.7995
rradius 39.6815
rwrist -31.9849
rhand -38.3997 6.22943
rfingers 7.12502
rthumb -11.4247 -23.4393
lclavicle -5.57591e-014 9.54166e-015
lhumerus 26.5389 -39.401 72.1388
lradius 72.0454
lwrist -5.52259
lhand -55.0864 -1.31811
lfingers 7.12502
lthumb -27.4628 26.6997
rfemur -27.7036 -1.16774 29.8117
rtibia 86.2812
rfoot 6.75267 -12.5407
rtoes -9.29163
lfemur 14.9598 -3.7995 -12.2761
ltibia 25.4425
lfoot -12.0186 1.95986
ltoes 3.65113
100
root -2.56762 17.4011 2.4185 157.216 -3.98448 -168.773
lowerback 19.0333 -2.6174 7.34582
upperback 9.2991 -4.62174 6.42393
thorax -0.416009 -3.32259 3.58752
lowerneck -2.08408 -4.58189 -5.81774
upperneck -6.07981 -5.64688 5.84424
head -1.21014 -2.69427 2.8835
rclavicle 1.55052e-014 -1.66979e-014
rhumerus -35.5906 30.0022 -90.9468
rradius 39.8309
rwrist -32.1764
rhand -38.4431 6.25456
rfingers 7.12502
rthumb -11.4666 -23.4118
lclavicle 1.55052e-014 -1.66979e-014
lhumerus 25.2749 -40.8476 72.279
lradius 70.5849
lwrist -5.7017
lhand -54.7433 -1.42145
lfingers 7.12502
lthumb -27.1346 26.648
rfemur -25.7425 -0.477728 29.8744
rtibia 83.6825
rfoot 6.56569 -13.0951
rtoes -8.3282
lfemur 14.1009 -3.71193 -12.2574
ltibia 26.1073
lfoot -12.4049 1.72522
ltoes 3.81041
101
root -2.55336 17.3869 2.39028 157.804 -4.08207 -168.843
lowerback 18.0726 -2.58243 7.36998
upperback 9.03599 -4.50502 6.30898
thorax -0.23454 -3.19008 3.36008
lowerneck -1.83557 -4.64451 -5.68686
upperneck -5.95433 -5.75949 5.86354
head -1.20927 -2.76304 2.86999
rclavicle -2.87244e-014 -5.24792e-014
rhumerus -35.6869 29.5714 -91.0875
rradius 39.9663
rwrist -32.3031
rhand -38.5246 6.19297
rfingers 7.12502
rthumb -11.5452 -23.4691
lclavicle -2.87244e-014 -5.24792e-014
lhumerus 24.0379 -42.2598 72.4298
lradius 69.148
lwrist -5.87915
lhand -54.2628 -1.45265
lfingers 7.12502
lthumb -26.6748 26.6877
rfemur -23.869 0.193317 29.9854
rtibia 81.0486
rfoot 6.07095 -13.7331
rtoes -8.72498
lfemur 13.1876 -3.63056 -12.2217
ltibia 26.8669
lfoot -12.8231 1.49992
ltoes 3.88455
